<svg xmlns="http://www.w3.org/2000/svg" viewBox="0 0 841.9 595.3">
  <g fill="#61DAFB">
    <path d="M666.3 296.5c-3.2-6.1-6.4-12.2-9.7-18.3 3.2 0 6.6 0 10 0 21.6 0 38.1-15.3 38.1-38.1 0-20.9-15.3-37.5-38.1-37.5-30.8 0-47.3 20.3-47.3 58.6 0 20.9 9.1 33.9 20.9 33.9 6.4 0 10.3-2.6 13.5-6.4zM472.4 200.7c0 0 20.9-4.8 28.1-6.1 11-1.9 14.1-1.9 14.1-1.9L470 274.6c0 0-2.6-.6-4.2-1.3-3.2-1.9-6.4-3.2-9.7-4.2 0-2 1.3-4.2 1.9-5.4 1.3-3.2 1.9-6.4 1.9-9.7 0-14.7-6.4-23.2-18.9-23.2-13.5 0-19.6 9.1-19.6 22.2 0 16.6 6.4 25.1 19.6 25.1a16.6 16.6 0 0012.2-4.8c-.6 0-1.3-.6-1.9-.6-2.6.6-4.8 1.3-7.7 2.6-6.4 2.6-11 5.4-13.5 9.1-6.4 7.7-6.4 15.3-6.4 17.2 0 4.2.6 7.7 1.9 9.7 2.6 5.4 6.4 9.1 11 11.6 8.3 4.2 17.8 6.4 28.7 6.4 23.2 0 35.4-10.3 35.4-31.4 0-11.6-4.8-19.6-12.2-24.5-9.1-5.4-22.9-9.1-40-10.3zM400.9 200.7c0 0-20.9-4.8-28.1-6.1-11-1.9-14.1-1.9-14.1-1.9L403.4 274.6c0 0 2.6-.6 4.2-1.3 3.2-1.9 6.4-3.2 9.7-4.2 0-2-1.3-4.2-1.9-5.4-1.3-3.2-1.9-6.4-1.9-9.7 0-14.7 6.4-23.2 18.9-23.2 13.5 0 19.6 9.1 19.6 22.2 0 16.6-6.4 25.1-19.6 25.1a16.6 16.6 0 00-12.2-4.8c.6 0 1.3-.6 1.9-.6 2.6.6 4.8 1.3 7.7 2.6 6.4 2.6 11 5.4 13.5 9.1 6.4 7.7 6.4 15.3 6.4 17.2 0 4.2-.6 7.7-1.9 9.7-2.6 5.4-6.4 9.1-11 11.6-8.3 4.2-17.8 6.4-28.7 6.4-23.2 0-35.4-10.3-35.4-31.4 0-11.6 4.8-19.6 12.2-24.5 9.1-5.4 22.9-9.1 40-10.3zM286.2 360.2c-7.7 0-14.1-3.2-18.3-9.1l-6.4-10.3h-1.3c-.6 0-1.3.6-1.9.6-3.2 1.9-7 3.2-11 3.2a13.9 13.9 0 01-13.5-13.5c0-11 6.4-16.6 17.2-16.6 6.4 0 11.6 1.9 14.7 3.8 1.9 1.3 3.2 1.3 4.8 1.3H302l-1.3-2.6c-4.2-8.3-9.1-13.5-16.6-16.6-11-4.8-23.2-6.4-36-6.4-29.6 0-47.3 16-47.3 41.9 0 15.3 6.4 27.4 16.6 35.4 9.1 7.7 21 11.6 34.4 11.6 15.3 0 26.1-3.8 33.3-11.6 4.2-4.8 6.4-9.7 7-15.3l-13.5-1.9zm-29.3-34.4c0 0-4.8 2.6-7 4.2-3.8 2.6-6.4 4.2-6.4 7 0 2 1.3 3.8 4.8 3.8 4.2 0 6.4-2 7.7-4.2 1.9-3.2 1.9-6.4 1.9-6.4zM327.9 367.6c-7.7-7-14.1-15.3-20.3-25.1h-1.9c-4.2 10.3-9.7 18.9-16.6 25.7-6.4 6.4-14.1 9.7-23.2 9.7-25.1 0-42.6-21.6-42.6-51.4 0-25.7 13.5-40.6 36.6-40.6 13.5 0 23.8 4.8 30.2 12.9l1.3 1.9 4.8-1.3c-2.6-13.5-5.4-23.8-9.1-31.4-6.1-12.9-15.3-20.3-26.7-20.3-11.6 0-20.3 3.8-26.7 10.3-8.3 8.3-12.9 20.3-12.9 33.9 0 10.3 2 18.3 5.4 24.5 1.3 2.6 1.9 4.2 1.9 6.4 0 2.6-1.3 5.4-3.2 7-6.4 6.1-13.5 9.7-21.6 9.7-16 0-28.7-9.1-35.4-24.5h-1.9c-2.6 10.3-5.4 19.6-9.1 27.4-4.8 11.6-11.6 20.9-20.9 27.4-9.7 7-21 10.3-33.3 10.3-28.1 0-47.3-17.8-47.3-43.2 0-19.6 9.1-32.7 20.3-40.6 10.3-7 22.9-10.3 37.5-10.3 17.8 0 30.2 4.2 38.1 12.24.2 4.8 6.4 9.1 7 14.7l-13.5 1.9c-.6-4.8-2.6-9.1-5.4-12.9-3.2-4.2-6.4-7-10.3-9.1-8.3-5.4-19.6-8.3-32.1-8.3-15.3 0-25.7 4.2-31.4 11.61.9-2.6 3.8-4.8 6.4-7 8.3-7 19.6-11 32.7-11 10.3 0 19.6 2 26.1 7 5.4 4.2 8.3 9.7 8.3 16.6 0 10.3-6.4 17.2-16.6 17.2-6.1 0-11.6-2.6-14.7-5.4-3.8-3.2-5.4-7-5.4-10.3v-2.6l-14.1 1.9v2.6c0 10.3 2.6 18.9 7 26.7 4.8 8.3 12.2 14.1 21 17.8 8.3 3.8 17.8 5.4 28.1 5.4 12.2 0 22.2-2 29.9-6.4 8.3-4.8 14.7-11.6 18.3-20.3zM402.1 483c-1.3-1.9-2.6-3.8-3.8-5.4-11.6-12.9-18.9-29.3-18.9-46.7 0-16.6 4.8-31.4 13.5-44.5 8.3-12.9 19.6-22.9 33.3-29.9 13.5-7 28.7-10.3 45.1-10.3 33.3 0 61.4 13.5 83.3 40.6 7 8.3 10.3 17.8 10.3 28.1 0 10.3-3.2 19.6-9.7 28.1-2.6 3.8-5.4 7-8.3 9.7-11.6 12.9-18.9 29.3-18.9 46.7 0 16.6 4.8 31.4 13.5 44.5 8.3 12.9 19.6 22.9 33.3 29.9 13.5 7 28.7 10.3 45.1 10.3 33.3 0 61.4-13.5 83.3-40.6 7-8.3 10.3-17.8 10.3-28.1 0-10.3-3.2-19.6-9.7-28.1-2.6-3.8-5.4-7-8.3-9.7l-9.7 1.3c2.6 3.8 4.8 7 6.4 10.3 5.4 8.3 8.3 17.2 8.3 26.1 0 13.5-3.8 25.1-11 34.4-7 9.1-17.2 16.6-29.3 21.6-11.6 4.8-24.5 7-38.1 7-10.3 0-20.9-2-30.8-6.4-11-4.2-20.3-10.3-27.4-19.6-7-9.1-11-19.6-11-31.4s4.2-22.2 11-31.4c7-9.1 16.6-15.3 27.4-19.6 10.3-4.2 20.9-6.4 32.1-6.4 11.6 0 22.9 2 33.3 6.4 9.7 3.8 18.9 9.1 27.4 16.6 8.3 7 14.7 15.3 18.9 25.1 4.2 9.1 6.4 19.6 6.4 30.8 0 12.9-3.2 24.5-9.7 33.9-6.4 9.1-15.3 16-26.1 20.9-10.3 4.8-21.6 7-34.4 7-10.3 0-20.9-2-30.8-6.4-11-4.2-20.3-10.3-27.4-19.6-7-9.1-11-19.6-11-31.4s4.2-22.2 11-31.4c7-9.1 16.6-15.3 27.4-19.6 10.3-4.2 20.9-6.4 32.1-6.4 11.6 0 22.9 2 33.3 6.4 9.7 3.8 18.9 9.1 27.4 16.6 8.3 7 14.7 15.3 18.9 25.1 4.2 9.1 6.4 19.6 6.4 30.8 0 12.9-3.2 24.5-9.7 33.9-6.4 9.1-15.3 16-26.1 20.9-10.3 4.8-21.6 7-34.4 7-10.3 0-20.9-2-30.8-6.4-11-4.2-20.3-10.3-27.4-19.6-7-9.1-11-19.6-11-31.4s4.2-22.2 11-31.4c7-9.1 16.6-15.3 27.4-19.6 10.3-4.2 20.9-6.4 32.1-6.4 11.6 0 22.9 2 33.3 6.4 9.7 3.8 18.9 9.1 27.4 16.6 8.3 7 14.7 15.3 18.9 25.1 4.2 9.1 6.4 19.6 6.4 30.8 0 12.9-3.2 24.5-9.7 33.9-6.4 9.1-15.3 16-26.1 20.9-10.3 4.8-21.6 7-34.4 7-10.3 0-20.9-2-30.8-6.4-11-4.2-20.3-10.3-27.4-19.6-7-9.1-11-19.6-11-31.4s4.2-22.2 11-31.4c7-9.1 16.6-15.3 27.4-19.6 10.3-4.2 20.9-6.4 32.1-6.4z"/>
    <path d="M157.3 289.4c-9.7 0-16.6-3.8-22.2-9.1-4.2-3.8-6.4-8.3-6.4-12.9 0-5.4 1.9-9.7 5.4-13.5 3.8-3.8 8.3-5.4 13.5-5.4 6.4 0 11.6 2 15.3 5.4 3.8 3.2 5.4 7.7 5.4 12.2 0 5.4-1.9 10.3-5.4 13.5-4.2 3.8-9.1 5.4-15.3 5.4zM203.4 362.7c-9.1 0-15.3-2.6-19.6-7-4.2-4.2-6.4-10.3-6.4-17.8 0-7.7 2-13.8 6.4-18.9 4.2-4.8 9.7-7 16-7 7 0 12.2 2 15.3 6.1 3.2 4.2 4.8 10.3 4.8 18.3 0 8.3-1.9 14.7-6.1 19.6-3.8 4.2-9.1 7-15.7 7z"/>
    <circle cx="420.9" cy="296.5" r="45.1"/>
  </g>
</svg>
